<svg width="500" height="699" viewBox="0 0 500 699" fill="none" xmlns="http://www.w3.org/2000/svg">
<circle cx="250" cy="302" r="250" fill="#CE4F3D"/>
<rect x="78" y="371" width="344" height="328" rx="12" fill="black"/>
<rect x="150" y="168" width="200" height="194" rx="12" fill="black"/>
<path d="M231.763 146.12L238.763 147.62L224.763 171.62L219.263 168.12L231.763 146.12Z" fill="#010000"/>
<path d="M252.142 150.016L259.026 151.741L246.733 172.453L241.198 169.021L252.142 150.016Z" fill="#010000"/>
<path fill-rule="evenodd" clip-rule="evenodd" d="M235.608 29.4933L234.961 30.0963L338.366 140.985C320.725 151.327 301.17 156.968 281.5 157.34C259.884 157.75 238.974 151.781 221.095 140.096C203.217 128.411 189.068 111.468 180.223 91.1494C171.378 70.8312 168.181 47.9333 170.99 25L235.608 29.4933Z" fill="#FEFAEF"/>
<path fill-rule="evenodd" clip-rule="evenodd" d="M263 48.3204C302.087 89.4034 340.087 131.403 377 174.32C376.667 174.653 376.333 174.987 376 175.32C351.484 163.229 327.151 150.896 303 138.32C276.237 125.439 249.57 112.272 223 98.8204C208.071 86.6054 204.738 71.7714 213 54.3204C212.667 53.9874 212.333 53.6534 212 53.3204C200.527 49.3354 190.027 43.6694 180.5 36.3204C178 32.6534 175.5 28.9874 173 25.3204C170.397 26.8694 167.897 28.5354 165.5 30.3204C156.272 25.9564 147.105 21.4564 138 16.8204C141.997 14.3754 146.331 12.7084 151 11.8204C158.023 11.4234 165.023 11.4234 172 11.8204C180.798 1.86437 191.798 -1.80263 205 0.820374C211.502 2.40537 217.502 5.07237 223 8.82037C236.201 22.1894 249.535 35.3554 263 48.3204Z" fill="#030201"/>
<circle cx="202" cy="19" r="7" fill="#FDFAEE"/>
<circle cx="202" cy="19" r="7" fill="#FDFAEE"/>
</svg>
