<svg width="1024" height="1024" viewBox="0 0 1024 1024" fill="none" xmlns="http://www.w3.org/2000/svg">
<rect width="1024" height="1024" fill="#FEFAEF"/>
<circle cx="512" cy="448" r="250" fill="#CE4F3D"/>
<rect x="340" y="517" width="344" height="328" rx="12" fill="black"/>
<rect x="412" y="314" width="200" height="194" rx="12" fill="black"/>
<path d="M493.763 292.12L500.763 293.62L486.763 317.62L481.263 314.12L493.763 292.12Z" fill="#010000"/>
<path d="M514.142 296.016L521.026 297.741L508.733 318.453L503.198 315.021L514.142 296.016Z" fill="#010000"/>
<path fill-rule="evenodd" clip-rule="evenodd" d="M497.608 175.493L496.961 176.096L600.366 286.985C582.725 297.327 563.17 302.968 543.5 303.34C521.884 303.75 500.974 297.781 483.095 286.096C465.217 274.411 451.068 257.468 442.223 237.149C433.378 216.831 430.181 193.933 432.99 171L497.608 175.493Z" fill="#FEFAEF"/>
<path fill-rule="evenodd" clip-rule="evenodd" d="M525 194.32C564.087 235.403 602.087 277.403 639 320.32C638.667 320.653 638.333 320.987 638 321.32C613.484 309.229 589.151 296.896 565 284.32C538.237 271.439 511.57 258.272 485 244.82C470.071 232.605 466.738 217.771 475 200.32C474.667 199.987 474.333 199.653 474 199.32C462.527 195.335 452.027 189.669 442.5 182.32C440 178.653 437.5 174.987 435 171.32C432.397 172.869 429.897 174.535 427.5 176.32C418.272 171.956 409.105 167.456 400 162.82C403.997 160.375 408.331 158.708 413 157.82C420.023 157.423 427.023 157.423 434 157.82C442.798 147.864 453.798 144.197 467 146.82C473.502 148.405 479.502 151.072 485 154.82C498.201 168.189 511.535 181.355 525 194.32Z" fill="#030201"/>
<circle cx="464" cy="165" r="7" fill="#FDFAEE"/>
<circle cx="464" cy="165" r="7" fill="#FDFAEE"/>
</svg>
